<svg width="509" height="512" viewBox="0 0 509 512" fill="none" xmlns="http://www.w3.org/2000/svg">
<path d="M302.859 460.807C276.178 461.224 235.382 460.913 212.105 467.55C204.374 469.755 210.004 474.261 216.122 475.958C233.188 480.693 255.45 480.143 275.621 478.818C290.056 477.87 304.64 476.532 318.694 475.02C331.44 473.648 345.852 472.584 357.572 470.282C387.281 464.446 346.032 456.247 330.157 454.725C295.401 451.392 257.994 452.049 222.74 453.893C202.23 454.965 180.66 457.994 166.609 463.773C158.4 467.15 146.746 471.335 147.643 476.193C148.749 482.184 165.626 488.738 180.435 490.683C224.354 496.452 277.141 492.819 321.767 489.744C356.762 487.333 416.665 482.254 422.33 466.483C429.521 446.461 333.941 442.853 297.483 441.643C237.919 439.668 178.977 442.04 124.895 451.588C100.509 455.893 82.2655 463.521 73.1955 472.693C66.3669 479.599 71.0467 488.139 81.8811 494.226C92.8432 500.385 108.722 503.955 128.676 505.259M128.676 505.259C153.578 506.886 103.491 505.237 128.676 505.259ZM128.676 505.259C160.743 505.286 47.7233 516.184 128.676 505.259Z" stroke="black" stroke-width="1.85639" stroke-linecap="round"/>
<g filter="url(#filter0_ii_31_122)">
<g clip-path="url(#clip0_31_122)">
<g clip-path="url(#clip1_31_122)">
<g filter="url(#filter1_b_31_122)">
<rect width="360.643" height="226.45" transform="matrix(0.866025 -0.5 0.866025 0.5 0 303.322)" fill="#1E1E1E"/>
</g>
<g filter="url(#filter2_f_31_122)">
<path d="M144.179 420.531L246.614 112.294L410.327 137.621L200.107 423.466L144.179 420.531Z" fill="#1E1E1E"/>
</g>
</g>
<rect x="-0.36317" width="361.062" height="226.87" transform="matrix(0.866025 -0.5 0.866025 0.5 -0.0486555 303.14)" stroke="#1E1E1E" stroke-width="0.419352"/>
<g clip-path="url(#clip2_31_122)">
<path d="M53.7492 299.128L46.4858 303.322L78.4448 321.773L104.593 306.676L97.3296 302.483L78.4448 313.386L53.7492 299.128Z" fill="#D1EE1E"/>
<path fill-rule="evenodd" clip-rule="evenodd" d="M69.002 297.031L59.5596 302.483L69.002 307.934L78.4443 302.483L87.8866 307.935L97.329 302.483L87.8866 297.031L78.4443 302.483L69.002 297.031Z" fill="#D1EE1E"/>
</g>
<path d="M152.078 357.638L139.766 350.53L135.281 353.12C134.809 353.392 134.627 353.791 135.281 354.168C135.935 354.545 136.625 354.441 137.097 354.168L139.766 352.627L150.262 358.687L147.592 360.228C147.12 360.5 146.939 360.899 147.592 361.276C148.246 361.653 148.936 361.549 149.408 361.276L156.563 357.145C157.035 356.873 157.216 356.474 156.563 356.097L151.987 353.455C151.46 353.151 150.843 353.067 150.171 353.455C149.499 353.843 149.644 354.199 150.171 354.503L153.839 356.621L152.078 357.638Z" fill="#686868"/>
<path d="M157.23 349.652L162.35 346.696C162.95 346.35 163.276 346.056 163.313 345.553C163.349 344.987 162.913 344.673 162.26 344.295L158.537 342.146C157.883 341.769 157.339 341.517 156.358 341.538C155.486 341.559 154.978 341.748 154.379 342.094L148.35 345.574C147.878 345.847 147.696 346.245 148.35 346.623C149.004 347 149.694 346.895 150.166 346.623L156.412 343.016L160.752 345.522L155.65 348.468C154.288 349.254 154.288 350.051 155.65 350.837L161.57 354.255L169.632 349.6C170.104 349.327 170.286 348.929 169.632 348.552C168.978 348.174 168.288 348.279 167.816 348.552L161.57 352.158L157.23 349.652Z" fill="#686868"/>
<path d="M169.482 335.471L172.496 337.211C173.513 337.798 173.422 338.207 172.914 338.5L169.355 340.555C168.882 340.828 168.701 341.226 169.355 341.604C170.008 341.981 170.698 341.876 171.17 341.604L174.729 339.549C175.238 339.255 175.946 339.203 176.963 339.79L179.977 341.53L173.731 345.137C173.259 345.409 173.077 345.808 173.731 346.185C174.384 346.562 175.074 346.458 175.547 346.185L181.793 342.579C182.828 341.981 182.828 341.079 181.793 340.482L178.307 338.469C177.58 338.05 176.908 337.829 175.837 337.861C175.892 337.242 175.51 336.854 174.784 336.435L171.298 334.422C170.262 333.825 168.701 333.825 167.666 334.422L161.419 338.029C160.947 338.301 160.766 338.7 161.419 339.077C162.073 339.454 162.763 339.35 163.235 339.077L169.482 335.471Z" fill="#686868"/>
<path d="M184.003 333.88L177.212 329.959C176.758 329.697 176.086 329.561 175.396 329.959C174.706 330.357 174.942 330.745 175.396 331.007L184.003 335.977L189.342 332.894L193.046 335.033C193.627 335.369 194.209 335.411 194.862 335.033C195.516 334.656 195.443 334.32 194.862 333.985L191.158 331.846C191.63 331.573 191.812 331.175 191.158 330.798C190.504 330.42 189.814 330.525 189.342 330.798L184.094 327.768C183.64 327.506 182.968 327.369 182.278 327.768C181.588 328.166 181.824 328.554 182.278 328.816L187.526 331.846L184.003 333.88Z" fill="#686868"/>
<path d="M205.148 314.879L209.597 312.31C210.069 312.037 210.251 311.639 209.597 311.262C208.943 310.884 208.253 310.989 207.781 311.262L201.517 314.879L209.488 319.481L214.845 316.388L219.185 318.894L214.99 321.316C214.7 321.483 214.028 321.578 213.665 321.662L212.884 321.84C212.593 321.903 212.375 321.966 212.157 322.091C211.685 322.364 211.722 322.846 212.194 323.119C212.829 323.486 213.537 323.266 214.246 323.108L215.244 322.888C215.898 322.741 216.298 322.657 216.77 322.385L220.801 320.058C221.455 319.68 221.854 319.366 221.763 318.789C221.691 318.307 221.346 318.045 220.783 317.72L216.897 315.476C216.261 315.109 215.771 314.889 214.79 314.91C213.937 314.92 213.41 315.12 212.829 315.455L209.488 317.384L205.148 314.879Z" fill="#686868"/>
<path d="M216.42 308.371C216.946 308.067 216.964 307.637 216.42 307.323C215.948 307.05 215.13 307.019 214.658 307.291L213.569 307.92C212.933 308.287 213.278 308.654 213.696 308.895L225.771 315.867C226.607 316.349 227.242 316.339 228.096 315.846L234.705 312.03C235.522 311.558 235.595 311.181 234.742 310.688L230.674 308.339C229.839 307.857 229.276 307.742 228.368 308.266L222.303 311.768L216.42 308.371ZM229.457 309.734L232.254 311.348L226.915 314.431L224.119 312.816L229.457 309.734Z" fill="#686868"/>
<path d="M234.827 297.743L237.333 299.19C238.132 299.651 238.15 299.62 238.078 300.27L237.733 302.964C237.678 303.457 237.715 303.499 238.314 303.845L242.69 306.371C243.271 306.707 243.852 306.749 244.506 306.371C245.16 305.994 245.087 305.658 244.506 305.323L240.983 303.289C240.348 302.922 240.348 302.88 240.402 302.367L240.747 299.63C240.82 299.085 240.729 299.054 240.093 298.687L234.827 295.646L226.765 300.301C226.184 300.637 226.366 301.119 226.765 301.35L227.673 301.874C228.072 302.104 228.908 302.209 229.489 301.874C230.07 301.538 229.888 301.056 229.489 300.825L234.827 297.743Z" fill="#686868"/>
<path d="M248.714 294.737L244.374 292.232L246.081 291.246L250.421 293.752L248.714 294.737ZM241.65 291.707C241.033 292.064 241.178 292.483 241.65 292.756L246.898 295.786C246.335 296.111 246.099 296.478 246.081 296.844C246.063 297.211 246.353 297.568 246.916 297.893L251.238 300.388C252.345 301.028 253.744 301.038 254.869 300.388L260.208 297.306C261.334 296.656 261.316 295.848 260.208 295.209L255.886 292.714C255.323 292.389 254.706 292.221 254.07 292.232C253.435 292.242 252.799 292.378 252.236 292.703L246.989 289.674C246.517 289.401 245.79 289.317 245.173 289.674L241.65 291.707ZM253.054 299.34L248.714 296.834L254.052 293.752L258.392 296.257L253.054 299.34Z" fill="#686868"/>
<path d="M284.53 281.166C284.004 281.47 283.986 281.9 284.53 282.215C285.021 282.498 285.802 282.529 286.346 282.215L287.254 281.691C287.799 281.376 287.745 280.925 287.254 280.642L274.943 273.534C274.471 273.262 273.635 273.241 273.127 273.534L265.973 277.665C265.464 277.958 265.5 278.441 265.973 278.713L270.621 281.397C271.093 281.67 271.928 281.691 272.437 281.397L278.683 277.791L284.53 281.166ZM271.529 279.824L268.696 278.189L274.035 275.107L276.868 276.742L271.529 279.824Z" fill="#686868"/>
<path d="M279.95 269.595C278.951 270.172 278.951 271.115 279.95 271.692L290.445 277.752C291.462 278.339 293.042 278.349 294.077 277.752L299.415 274.669C300.451 274.072 300.432 273.16 299.416 272.573L288.92 266.513C287.921 265.936 286.287 265.936 285.288 266.513L279.95 269.595ZM292.261 276.703L281.765 270.644L287.104 267.561L297.6 273.621L292.261 276.703Z" fill="#686868"/>
<path d="M293.019 262.05C292.02 262.626 292.02 263.57 293.019 264.146L303.514 270.206C304.531 270.793 306.111 270.804 307.146 270.206L312.485 267.124C313.52 266.526 313.502 265.614 312.485 265.027L301.989 258.967C300.99 258.391 299.356 258.391 298.357 258.967L293.019 262.05ZM305.33 269.158L294.835 263.098L300.173 260.016L310.669 266.075L305.33 269.158Z" fill="#686868"/>
<path d="M306.088 254.504C305.089 255.081 305.089 256.024 306.088 256.601L316.584 262.661C317.6 263.248 319.18 263.258 320.215 262.661L325.554 259.578C326.589 258.981 326.571 258.069 325.554 257.482L315.058 251.422C314.059 250.845 312.425 250.845 311.426 251.422L306.088 254.504ZM318.399 261.612L307.904 255.553L313.242 252.47L323.738 258.53L318.399 261.612Z" fill="#686868"/>
<path d="M332.226 239.413C331.227 239.99 331.227 240.933 332.226 241.51L342.722 247.57C343.739 248.157 345.318 248.167 346.354 247.57L351.692 244.487C352.727 243.89 352.709 242.978 351.692 242.391L341.196 236.331C340.198 235.754 338.564 235.754 337.565 236.331L332.226 239.413ZM344.538 246.521L334.042 240.462L339.381 237.379L349.876 243.439L344.538 246.521Z" fill="#686868"/>
<path d="M345.295 231.868C344.297 232.444 344.297 233.388 345.295 233.965L355.791 240.024C356.808 240.611 358.388 240.622 359.423 240.024L364.761 236.942C365.796 236.344 365.778 235.432 364.761 234.845L354.266 228.786C353.267 228.209 351.633 228.209 350.634 228.786L345.295 231.868ZM357.607 238.976L347.111 232.916L352.45 229.834L362.945 235.894L357.607 238.976Z" fill="#686868"/>
<path d="M358.365 224.322C357.366 224.899 357.366 225.842 358.365 226.419L368.86 232.479C369.877 233.066 371.457 233.076 372.492 232.479L377.83 229.396C378.865 228.799 378.847 227.887 377.83 227.3L367.335 221.24C366.336 220.663 364.702 220.663 363.703 221.24L358.365 224.322ZM370.676 231.43L360.18 225.371L365.519 222.288L376.015 228.348L370.676 231.43Z" fill="#686868"/>
<path d="M371.434 216.777C370.435 217.353 370.435 218.297 371.434 218.874L381.929 224.933C382.946 225.52 384.526 225.531 385.561 224.933L390.9 221.851C391.935 221.253 391.916 220.341 390.9 219.754L380.404 213.695C379.405 213.118 377.771 213.118 376.772 213.695L371.434 216.777ZM383.745 223.885L373.25 217.825L378.588 214.743L389.084 220.803L383.745 223.885Z" fill="#686868"/>
<g style="mix-blend-mode:overlay" opacity="0.5">
<rect width="360.643" height="226.45" transform="matrix(0.866025 -0.5 0.866025 0.5 0 303.322)" fill="url(#paint0_linear_31_122)"/>
</g>
<g clip-path="url(#clip3_31_122)">
<path d="M292.788 176.467C293.441 176.509 294.095 176.635 294.676 176.803C295.257 176.971 295.838 177.222 296.347 177.516C296.855 177.809 297.291 178.145 297.581 178.48C297.872 178.816 298.09 179.193 298.163 179.571C298.308 180.074 299.107 180.451 299.978 180.367C300.85 180.284 301.504 179.822 301.358 179.319C301.213 178.732 300.923 178.229 300.487 177.642C300.051 177.055 299.397 176.593 298.671 176.174C297.945 175.755 297.073 175.419 296.129 175.126C295.257 174.874 294.24 174.706 293.223 174.622C292.352 174.538 291.553 174.916 291.408 175.419C291.262 175.922 291.916 176.384 292.788 176.467Z" fill="#B5B5B5"/>
<path d="M294.676 172.945C296.928 173.238 299.107 173.909 300.85 174.916C302.593 175.922 303.755 177.18 304.264 178.48C304.409 178.984 305.353 179.277 306.225 179.193C307.169 179.067 307.605 178.564 307.46 178.061C306.806 176.426 305.426 174.874 303.174 173.574C300.995 172.316 298.235 171.477 295.402 171.1C294.531 171.016 293.587 171.309 293.441 171.813C293.296 172.316 293.732 172.819 294.676 172.945Z" fill="#B5B5B5"/>
<path d="M296.71 169.255C299.978 169.716 303.029 170.722 305.571 172.19C308.113 173.658 309.784 175.461 310.656 177.306C310.946 177.809 311.745 178.103 312.689 177.977C313.561 177.809 314.069 177.348 313.851 176.803C312.907 174.58 310.946 172.526 307.968 170.806C304.99 169.087 301.431 167.955 297.581 167.409C296.71 167.242 295.838 167.577 295.548 168.08C295.33 168.626 295.838 169.087 296.71 169.255Z" fill="#B5B5B5"/>
<path d="M298.744 165.564C302.956 166.235 307.024 167.493 310.365 169.422C313.706 171.351 315.958 173.658 317.047 176.132C317.338 176.635 318.137 176.929 319.081 176.803C319.953 176.635 320.461 176.174 320.243 175.629C318.936 172.861 316.466 170.261 312.689 168.08C308.912 165.9 304.409 164.474 299.615 163.719C298.744 163.551 297.872 163.887 297.581 164.39C297.291 164.893 297.872 165.397 298.744 165.564Z" fill="#B5B5B5"/>
</g>
<path d="M398.726 237.883C401.408 236.335 404.658 235.317 408.088 234.827C407.383 238.53 409.489 242.381 414.41 245.222C419.331 248.063 426 249.279 432.414 248.872C431.566 250.852 429.802 252.729 427.121 254.277C419.28 258.804 406.567 258.804 398.726 254.277C390.886 249.75 390.886 242.41 398.726 237.883ZM427.484 237.674C432.202 240.398 434.082 244.14 433.121 247.676C426.996 248.231 420.514 247.146 415.795 244.422C411.077 241.698 409.198 237.955 410.159 234.419C411.864 234.265 413.597 234.237 415.312 234.337C415.447 234.345 415.581 234.353 415.716 234.363C416.694 234.431 417.664 234.541 418.619 234.692C421.866 235.207 424.932 236.2 427.484 237.674ZM410.587 233.242C411.465 231.332 413.2 229.527 415.795 228.028C423.636 223.501 436.349 223.501 444.19 228.028C452.031 232.555 452.031 239.895 444.19 244.422C441.595 245.92 438.467 246.922 435.159 247.429C435.957 243.677 433.862 239.756 428.87 236.874C423.878 233.991 417.086 232.782 410.587 233.242Z" stroke="#686868" stroke-width="0.761072"/>
<path d="M182.758 375.631L188.859 379.154L187.927 379.692L180.431 379.249L184.562 381.634L183.438 382.284L177.337 378.761L178.269 378.223L185.765 378.665L181.634 376.28L182.758 375.631ZM184.357 374.708L185.49 374.054L191.591 377.576L190.458 378.231L184.357 374.708ZM196.116 375.064C195.5 375.42 194.809 375.665 194.042 375.799C193.275 375.927 192.511 375.935 191.749 375.824C190.994 375.71 190.317 375.48 189.719 375.135C189.12 374.789 188.725 374.397 188.533 373.957C188.341 373.518 188.359 373.078 188.586 372.639C188.812 372.193 189.233 371.792 189.849 371.436C190.349 371.148 190.892 370.935 191.479 370.797C192.066 370.66 192.668 370.604 193.284 370.631L193.24 371.451C192.322 371.431 191.54 371.607 190.895 371.98C190.477 372.221 190.195 372.491 190.05 372.79C189.899 373.085 189.893 373.38 190.032 373.676C190.172 373.971 190.448 374.237 190.86 374.476C191.273 374.714 191.735 374.873 192.246 374.954C192.758 375.034 193.272 375.033 193.789 374.949C194.3 374.861 194.765 374.697 195.184 374.456C195.829 374.083 196.131 373.63 196.09 373.097L197.52 373.077C197.566 373.432 197.467 373.781 197.223 374.123C196.985 374.462 196.616 374.776 196.116 375.064ZM199.048 370.322L199.074 371.454L200.635 372.355L199.502 373.009L193.4 369.487L194.533 368.833L197.662 370.639L197.549 367.091L198.822 366.357L198.987 369.411L205.08 369.789L203.755 370.554L199.048 370.322ZM211.125 366.399C210.503 366.758 209.809 367.005 209.042 367.139C208.269 367.27 207.502 367.28 206.741 367.169C205.974 367.055 205.294 366.827 204.701 366.485C204.108 366.143 203.716 365.752 203.524 365.312C203.327 364.869 203.344 364.427 203.577 363.984C203.803 363.538 204.228 363.135 204.849 362.776C205.471 362.417 206.168 362.172 206.941 362.041C207.708 361.907 208.472 361.895 209.233 362.006C209.995 362.117 210.675 362.345 211.273 362.69C211.872 363.036 212.267 363.429 212.458 363.868C212.65 364.308 212.633 364.75 212.406 365.197C212.174 365.639 211.747 366.04 211.125 366.399ZM210.131 365.826C210.538 365.591 210.814 365.327 210.959 365.036C211.099 364.74 211.099 364.445 210.959 364.15C210.814 363.851 210.538 363.585 210.131 363.35C209.724 363.115 209.265 362.957 208.754 362.877C208.237 362.793 207.726 362.793 207.22 362.877C206.709 362.957 206.25 363.115 205.843 363.35C205.436 363.585 205.163 363.85 205.024 364.145C204.878 364.437 204.878 364.732 205.024 365.03C205.163 365.326 205.436 365.591 205.843 365.826C206.25 366.06 206.712 366.22 207.229 366.304C207.74 366.384 208.251 366.384 208.763 366.304C209.268 366.22 209.724 366.06 210.131 365.826ZM214.809 357.127L220.91 360.649L219.777 361.303L217.162 359.794L214.007 361.615L216.621 363.125L215.488 363.779L209.387 360.257L210.52 359.603L213.039 361.057L216.194 359.235L213.675 357.781L214.809 357.127ZM228.113 356.491L224.06 354.161L225.402 357.25L224.897 357.542L219.597 356.798L223.589 359.102L222.508 359.726L216.407 356.204L217.34 355.665L223.807 356.601L222.142 352.893L223.075 352.354L229.185 355.872L228.113 356.491ZM231.276 352.178L233.429 353.421L232.296 354.076L230.16 352.843L223.798 351.937L225.009 351.237L229.768 351.922L228.6 349.164L229.716 348.52L231.276 352.178Z" fill="white"/>
<path d="M269.89 332.471C269.402 332.753 268.844 332.934 268.216 333.015C267.583 333.092 266.921 333.058 266.229 332.914C265.532 332.766 264.858 332.505 264.207 332.129C263.556 331.753 263.106 331.366 262.856 330.967C262.6 330.564 262.542 330.182 262.682 329.819C262.815 329.454 263.126 329.13 263.614 328.848C264.102 328.566 264.663 328.387 265.297 328.31C265.93 328.226 266.595 328.258 267.292 328.405C267.984 328.549 268.655 328.809 269.306 329.185C269.957 329.561 270.41 329.95 270.666 330.353C270.915 330.752 270.971 331.136 270.831 331.505C270.692 331.867 270.378 332.189 269.89 332.471ZM268.905 331.903C269.341 331.651 269.503 331.349 269.393 330.997C269.288 330.641 268.879 330.257 268.164 329.844C267.449 329.432 266.784 329.195 266.168 329.135C265.558 329.071 265.035 329.165 264.599 329.417C264.169 329.665 264.007 329.967 264.111 330.322C264.222 330.675 264.634 331.057 265.349 331.47C266.064 331.882 266.726 332.121 267.336 332.184C267.952 332.245 268.475 332.151 268.905 331.903ZM271.256 327.264C272.116 326.768 272.92 326.498 273.67 326.454C274.414 326.407 275.073 326.55 275.648 326.882C276.015 327.093 276.256 327.337 276.372 327.612C276.488 327.887 276.453 328.179 276.267 328.487C276.081 328.796 275.724 329.103 275.195 329.408C274.759 329.66 274.277 329.868 273.748 330.032C273.214 330.193 272.697 330.29 272.197 330.324L271.796 329.539C272.209 329.515 272.627 329.445 273.051 329.328C273.475 329.204 273.856 329.044 274.193 328.85C274.594 328.618 274.826 328.39 274.89 328.165C274.954 327.934 274.841 327.734 274.55 327.566C274.236 327.385 273.876 327.321 273.469 327.375C273.063 327.422 272.56 327.618 271.962 327.964L270.489 328.814L267.481 326.716L271.064 324.648L272.014 325.196L269.39 326.711L270.672 327.602L271.256 327.264ZM275.405 320.712L276.381 320.149L281.715 326.55L280.739 327.113L275.405 320.712ZM289.543 319.917L290.502 320.47L286.004 323.067L285.246 322.629L285.368 319.902C285.38 319.593 285.336 319.356 285.237 319.192C285.139 319.021 284.993 318.88 284.802 318.769C284.517 318.605 284.203 318.534 283.86 318.558C283.517 318.581 283.16 318.701 282.788 318.915C282.166 319.274 281.902 319.672 281.995 320.108L280.592 320.214C280.51 319.891 280.583 319.564 280.81 319.232C281.036 318.893 281.399 318.58 281.899 318.291C282.562 317.909 283.247 317.694 283.956 317.647C284.665 317.6 285.29 317.733 285.83 318.045C286.161 318.236 286.402 318.456 286.554 318.704C286.705 318.952 286.769 319.298 286.745 319.74L286.667 321.577L289.543 319.917ZM295.045 316.247L293.964 316.871L295.35 317.671L294.252 318.305L292.866 317.505L289.519 319.437L288.734 318.985L287.811 314.979L289.022 314.279L289.946 318.084L291.942 316.931L290.713 316.222L291.776 315.608L293.005 316.317L294.086 315.693L295.045 316.247Z" fill="#686868"/>
</g>
<rect x="1.45268" width="358.966" height="224.773" rx="15.9354" transform="matrix(0.866025 -0.5 0.866025 0.5 0.194622 304.048)" stroke="url(#paint1_linear_31_122)" stroke-opacity="0.3" stroke-width="1.67741"/>
</g>
<g filter="url(#filter3_ii_31_122)">
<g clip-path="url(#clip4_31_122)">
<g clip-path="url(#clip5_31_122)">
<g filter="url(#filter4_b_31_122)">
<rect width="360.643" height="226.45" transform="matrix(0.866025 -0.5 0.866025 0.5 0 180.322)" fill="#1E1E1E"/>
</g>
<g filter="url(#filter5_f_31_122)">
<path d="M144.179 297.531L246.614 -10.7058L410.327 14.6207L200.107 300.466L144.179 297.531Z" fill="#1E1E1E"/>
</g>
</g>
<rect x="-0.36317" width="361.062" height="226.87" transform="matrix(0.866025 -0.5 0.866025 0.5 -0.0486555 180.14)" stroke="#1E1E1E" stroke-width="0.419352"/>
<g clip-path="url(#clip6_31_122)">
<path d="M53.7492 176.128L46.4858 180.322L78.4448 198.773L104.593 183.676L97.3296 179.483L78.4448 190.386L53.7492 176.128Z" fill="#D1EE1E"/>
<path fill-rule="evenodd" clip-rule="evenodd" d="M69.002 174.031L59.5596 179.483L69.002 184.934L78.4443 179.483L87.8866 184.935L97.329 179.483L87.8866 174.031L78.4443 179.483L69.002 174.031Z" fill="#D1EE1E"/>
</g>
<path d="M152.078 234.638L139.766 227.53L135.281 230.12C134.809 230.392 134.627 230.791 135.281 231.168C135.935 231.545 136.625 231.441 137.097 231.168L139.766 229.627L150.262 235.687L147.592 237.228C147.12 237.5 146.939 237.899 147.592 238.276C148.246 238.653 148.936 238.549 149.408 238.276L156.563 234.145C157.035 233.873 157.216 233.474 156.563 233.097L151.987 230.455C151.46 230.151 150.843 230.067 150.171 230.455C149.499 230.843 149.644 231.199 150.171 231.503L153.839 233.621L152.078 234.638Z" fill="#686868"/>
<path d="M157.23 226.652L162.35 223.696C162.95 223.35 163.276 223.056 163.313 222.553C163.349 221.987 162.913 221.673 162.26 221.295L158.537 219.146C157.883 218.769 157.339 218.517 156.358 218.538C155.486 218.559 154.978 218.748 154.379 219.094L148.35 222.574C147.878 222.847 147.696 223.245 148.35 223.623C149.004 224 149.694 223.895 150.166 223.623L156.412 220.016L160.752 222.522L155.65 225.468C154.288 226.254 154.288 227.051 155.65 227.837L161.57 231.255L169.632 226.6C170.104 226.327 170.286 225.929 169.632 225.552C168.978 225.174 168.288 225.279 167.816 225.552L161.57 229.158L157.23 226.652Z" fill="#686868"/>
<path d="M169.482 212.471L172.496 214.211C173.513 214.798 173.422 215.207 172.914 215.5L169.355 217.555C168.882 217.828 168.701 218.226 169.355 218.604C170.008 218.981 170.698 218.876 171.17 218.604L174.729 216.549C175.238 216.255 175.946 216.203 176.963 216.79L179.977 218.53L173.731 222.137C173.259 222.409 173.077 222.808 173.731 223.185C174.384 223.562 175.074 223.458 175.547 223.185L181.793 219.579C182.828 218.981 182.828 218.079 181.793 217.482L178.307 215.469C177.58 215.05 176.908 214.829 175.837 214.861C175.892 214.242 175.51 213.854 174.784 213.435L171.298 211.422C170.262 210.825 168.701 210.825 167.666 211.422L161.419 215.029C160.947 215.301 160.766 215.7 161.419 216.077C162.073 216.454 162.763 216.35 163.235 216.077L169.482 212.471Z" fill="#686868"/>
<path d="M184.003 210.88L177.212 206.959C176.758 206.697 176.086 206.561 175.396 206.959C174.706 207.357 174.942 207.745 175.396 208.007L184.003 212.977L189.342 209.894L193.046 212.033C193.627 212.369 194.209 212.411 194.862 212.033C195.516 211.656 195.443 211.32 194.862 210.985L191.158 208.846C191.63 208.573 191.812 208.175 191.158 207.798C190.504 207.42 189.814 207.525 189.342 207.798L184.094 204.768C183.64 204.506 182.968 204.369 182.278 204.768C181.588 205.166 181.824 205.554 182.278 205.816L187.526 208.846L184.003 210.88Z" fill="#686868"/>
<path d="M205.148 191.879L209.597 189.31C210.069 189.037 210.251 188.639 209.597 188.262C208.943 187.884 208.253 187.989 207.781 188.262L201.517 191.879L209.488 196.481L214.845 193.388L219.185 195.894L214.99 198.316C214.7 198.483 214.028 198.578 213.665 198.662L212.884 198.84C212.593 198.903 212.375 198.966 212.157 199.091C211.685 199.364 211.722 199.846 212.194 200.119C212.829 200.486 213.537 200.266 214.246 200.108L215.244 199.888C215.898 199.741 216.298 199.657 216.77 199.385L220.801 197.058C221.455 196.68 221.854 196.366 221.763 195.789C221.691 195.307 221.346 195.045 220.783 194.72L216.897 192.476C216.261 192.109 215.771 191.889 214.79 191.91C213.937 191.92 213.41 192.12 212.829 192.455L209.488 194.384L205.148 191.879Z" fill="#686868"/>
<path d="M216.42 185.371C216.946 185.067 216.964 184.637 216.42 184.323C215.948 184.05 215.13 184.019 214.658 184.291L213.569 184.92C212.933 185.287 213.278 185.654 213.696 185.895L225.771 192.867C226.607 193.349 227.242 193.339 228.096 192.846L234.705 189.03C235.522 188.558 235.595 188.181 234.742 187.688L230.674 185.339C229.839 184.857 229.276 184.742 228.368 185.266L222.303 188.768L216.42 185.371ZM229.457 186.734L232.254 188.348L226.915 191.431L224.119 189.816L229.457 186.734Z" fill="#686868"/>
<path d="M234.827 174.743L237.333 176.19C238.132 176.651 238.15 176.62 238.078 177.27L237.733 179.964C237.678 180.457 237.715 180.499 238.314 180.845L242.69 183.371C243.271 183.707 243.852 183.749 244.506 183.371C245.16 182.994 245.087 182.658 244.506 182.323L240.983 180.289C240.348 179.922 240.348 179.88 240.402 179.367L240.747 176.63C240.82 176.085 240.729 176.054 240.093 175.687L234.827 172.646L226.765 177.301C226.184 177.637 226.366 178.119 226.765 178.35L227.673 178.874C228.072 179.104 228.908 179.209 229.489 178.874C230.07 178.538 229.888 178.056 229.489 177.825L234.827 174.743Z" fill="#686868"/>
<path d="M248.714 171.737L244.374 169.232L246.081 168.246L250.421 170.752L248.714 171.737ZM241.65 168.707C241.033 169.064 241.178 169.483 241.65 169.756L246.898 172.786C246.335 173.111 246.099 173.478 246.081 173.844C246.063 174.211 246.353 174.568 246.916 174.893L251.238 177.388C252.345 178.028 253.744 178.038 254.869 177.388L260.208 174.306C261.334 173.656 261.316 172.848 260.208 172.209L255.886 169.714C255.323 169.389 254.706 169.221 254.07 169.232C253.435 169.242 252.799 169.378 252.236 169.703L246.989 166.674C246.517 166.401 245.79 166.317 245.173 166.674L241.65 168.707ZM253.054 176.34L248.714 173.834L254.052 170.752L258.392 173.257L253.054 176.34Z" fill="#686868"/>
<path d="M284.53 158.166C284.004 158.47 283.986 158.9 284.53 159.215C285.021 159.498 285.802 159.529 286.346 159.215L287.254 158.691C287.799 158.376 287.745 157.925 287.254 157.642L274.943 150.534C274.471 150.262 273.635 150.241 273.127 150.534L265.973 154.665C265.464 154.958 265.5 155.441 265.973 155.713L270.621 158.397C271.093 158.67 271.928 158.691 272.437 158.397L278.683 154.791L284.53 158.166ZM271.529 156.824L268.696 155.189L274.035 152.107L276.868 153.742L271.529 156.824Z" fill="#686868"/>
<path d="M279.95 146.595C278.951 147.172 278.951 148.115 279.95 148.692L290.445 154.752C291.462 155.339 293.042 155.349 294.077 154.752L299.415 151.669C300.451 151.072 300.432 150.16 299.416 149.573L288.92 143.513C287.921 142.936 286.287 142.936 285.288 143.513L279.95 146.595ZM292.261 153.703L281.765 147.644L287.104 144.561L297.6 150.621L292.261 153.703Z" fill="#686868"/>
<path d="M293.019 139.05C292.02 139.626 292.02 140.57 293.019 141.146L303.514 147.206C304.531 147.793 306.111 147.804 307.146 147.206L312.485 144.124C313.52 143.526 313.502 142.614 312.485 142.027L301.989 135.967C300.99 135.391 299.356 135.391 298.357 135.967L293.019 139.05ZM305.33 146.158L294.835 140.098L300.173 137.016L310.669 143.075L305.33 146.158Z" fill="#686868"/>
<path d="M306.088 131.504C305.089 132.081 305.089 133.024 306.088 133.601L316.584 139.661C317.6 140.248 319.18 140.258 320.215 139.661L325.554 136.578C326.589 135.981 326.571 135.069 325.554 134.482L315.058 128.422C314.059 127.845 312.425 127.845 311.426 128.422L306.088 131.504ZM318.399 138.612L307.904 132.553L313.242 129.47L323.738 135.53L318.399 138.612Z" fill="#686868"/>
<path d="M332.226 116.413C331.227 116.99 331.227 117.933 332.226 118.51L342.722 124.57C343.739 125.157 345.318 125.167 346.354 124.57L351.692 121.487C352.727 120.89 352.709 119.978 351.692 119.391L341.196 113.331C340.198 112.754 338.564 112.754 337.565 113.331L332.226 116.413ZM344.538 123.521L334.042 117.462L339.381 114.379L349.876 120.439L344.538 123.521Z" fill="#686868"/>
<path d="M345.295 108.868C344.297 109.444 344.297 110.388 345.295 110.965L355.791 117.024C356.808 117.611 358.388 117.622 359.423 117.024L364.761 113.942C365.796 113.344 365.778 112.432 364.761 111.845L354.266 105.786C353.267 105.209 351.633 105.209 350.634 105.786L345.295 108.868ZM357.607 115.976L347.111 109.916L352.45 106.834L362.945 112.894L357.607 115.976Z" fill="#686868"/>
<path d="M358.365 101.322C357.366 101.899 357.366 102.842 358.365 103.419L368.86 109.479C369.877 110.066 371.457 110.076 372.492 109.479L377.83 106.396C378.865 105.799 378.847 104.887 377.83 104.3L367.335 98.24C366.336 97.6634 364.702 97.6634 363.703 98.24L358.365 101.322ZM370.676 108.43L360.18 102.371L365.519 99.2884L376.015 105.348L370.676 108.43Z" fill="#686868"/>
<path d="M371.434 93.7768C370.435 94.3534 370.435 95.297 371.434 95.8736L381.929 101.933C382.946 102.52 384.526 102.531 385.561 101.933L390.9 98.851C391.935 98.2534 391.916 97.3413 390.9 96.7542L380.404 90.6946C379.405 90.118 377.771 90.1179 376.772 90.6945L371.434 93.7768ZM383.745 100.885L373.25 94.8252L378.588 91.7429L389.084 97.8026L383.745 100.885Z" fill="#686868"/>
<g style="mix-blend-mode:overlay" opacity="0.5">
<rect width="360.643" height="226.45" transform="matrix(0.866025 -0.5 0.866025 0.5 0 180.322)" fill="url(#paint2_linear_31_122)"/>
</g>
<g clip-path="url(#clip7_31_122)">
<path d="M292.788 53.4674C293.441 53.5094 294.095 53.6352 294.676 53.8029C295.257 53.9707 295.838 54.2223 296.347 54.5158C296.855 54.8094 297.291 55.1448 297.581 55.4803C297.872 55.8158 298.09 56.1932 298.163 56.5706C298.308 57.0739 299.107 57.4513 299.978 57.3674C300.85 57.2835 301.504 56.8223 301.358 56.319C301.213 55.7319 300.923 55.2287 300.487 54.6416C300.051 54.0545 299.397 53.5932 298.671 53.1739C297.945 52.7545 297.073 52.4191 296.129 52.1255C295.257 51.8739 294.24 51.7062 293.223 51.6223C292.352 51.5384 291.553 51.9158 291.408 52.4191C291.262 52.9223 291.916 53.3836 292.788 53.4674Z" fill="#B5B5B5"/>
<path d="M294.676 49.9449C296.928 50.2384 299.107 50.9094 300.85 51.9158C302.593 52.9223 303.755 54.1803 304.264 55.4803C304.409 55.9836 305.353 56.2771 306.225 56.1932C307.169 56.0674 307.605 55.5642 307.46 55.061C306.806 53.4255 305.426 51.8739 303.174 50.5739C300.995 49.3158 298.235 48.4771 295.402 48.0997C294.531 48.0159 293.587 48.3094 293.441 48.8126C293.296 49.3158 293.732 49.8191 294.676 49.9449Z" fill="#B5B5B5"/>
<path d="M296.71 46.2546C299.978 46.7159 303.029 47.7223 305.571 49.19C308.113 50.6578 309.784 52.461 310.656 54.3061C310.946 54.8094 311.745 55.1029 312.689 54.9771C313.561 54.8094 314.069 54.3481 313.851 53.8029C312.907 51.5804 310.946 49.5255 307.968 47.8062C304.99 46.0868 301.431 44.9546 297.581 44.4094C296.71 44.2417 295.838 44.5772 295.548 45.0804C295.33 45.6256 295.838 46.0868 296.71 46.2546Z" fill="#B5B5B5"/>
<path d="M298.744 42.5643C302.956 43.2353 307.024 44.4933 310.365 46.4223C313.706 48.3514 315.958 50.6578 317.047 53.132C317.338 53.6352 318.137 53.9287 319.081 53.8029C319.953 53.6352 320.461 53.1739 320.243 52.6288C318.936 49.861 316.466 47.261 312.689 45.0804C308.912 42.8998 304.409 41.474 299.615 40.7191C298.744 40.5514 297.872 40.8869 297.581 41.3901C297.291 41.8933 297.872 42.3966 298.744 42.5643Z" fill="#B5B5B5"/>
</g>
<path d="M398.726 114.883C401.408 113.335 404.658 112.317 408.088 111.827C407.383 115.53 409.489 119.381 414.41 122.222C419.331 125.063 426 126.279 432.414 125.872C431.566 127.852 429.802 129.729 427.121 131.277C419.28 135.804 406.567 135.804 398.726 131.277C390.886 126.75 390.886 119.41 398.726 114.883ZM427.484 114.674C432.202 117.398 434.082 121.14 433.121 124.676C426.996 125.231 420.514 124.146 415.795 121.422C411.077 118.698 409.198 114.955 410.159 111.419C411.864 111.265 413.597 111.237 415.312 111.337C415.447 111.345 415.581 111.353 415.716 111.363C416.694 111.431 417.664 111.541 418.619 111.692C421.866 112.207 424.932 113.2 427.484 114.674ZM410.587 110.242C411.465 108.332 413.2 106.527 415.795 105.028C423.636 100.501 436.349 100.501 444.19 105.028C452.031 109.555 452.031 116.895 444.19 121.422C441.595 122.92 438.467 123.922 435.159 124.429C435.957 120.677 433.862 116.756 428.87 113.874C423.878 110.991 417.086 109.782 410.587 110.242Z" stroke="#686868" stroke-width="0.761072"/>
<path d="M182.758 252.631L188.859 256.154L187.927 256.692L180.431 256.249L184.562 258.634L183.438 259.284L177.337 255.761L178.269 255.223L185.765 255.665L181.634 253.28L182.758 252.631ZM184.357 251.708L185.49 251.054L191.591 254.576L190.458 255.231L184.357 251.708ZM196.116 252.064C195.5 252.42 194.809 252.665 194.042 252.799C193.275 252.927 192.511 252.935 191.749 252.824C190.994 252.71 190.317 252.48 189.719 252.135C189.12 251.789 188.725 251.397 188.533 250.957C188.341 250.518 188.359 250.078 188.586 249.639C188.812 249.193 189.233 248.792 189.849 248.436C190.349 248.148 190.892 247.935 191.479 247.797C192.066 247.66 192.668 247.604 193.284 247.631L193.24 248.451C192.322 248.431 191.54 248.607 190.895 248.98C190.477 249.221 190.195 249.491 190.05 249.79C189.899 250.085 189.893 250.38 190.032 250.676C190.172 250.971 190.448 251.237 190.86 251.476C191.273 251.714 191.735 251.873 192.246 251.954C192.758 252.034 193.272 252.033 193.789 251.949C194.3 251.861 194.765 251.697 195.184 251.456C195.829 251.083 196.131 250.63 196.09 250.097L197.52 250.077C197.566 250.432 197.467 250.781 197.223 251.123C196.985 251.462 196.616 251.776 196.116 252.064ZM199.048 247.322L199.074 248.454L200.635 249.355L199.502 250.009L193.4 246.487L194.533 245.833L197.662 247.639L197.549 244.091L198.822 243.357L198.987 246.411L205.08 246.789L203.755 247.554L199.048 247.322ZM211.125 243.399C210.503 243.758 209.809 244.005 209.042 244.139C208.269 244.27 207.502 244.28 206.741 244.169C205.974 244.055 205.294 243.827 204.701 243.485C204.108 243.143 203.716 242.752 203.524 242.312C203.327 241.869 203.344 241.427 203.577 240.984C203.803 240.538 204.228 240.135 204.849 239.776C205.471 239.417 206.168 239.172 206.941 239.041C207.708 238.907 208.472 238.895 209.233 239.006C209.995 239.117 210.675 239.345 211.273 239.69C211.872 240.036 212.267 240.429 212.458 240.868C212.65 241.308 212.633 241.75 212.406 242.197C212.174 242.639 211.747 243.04 211.125 243.399ZM210.131 242.826C210.538 242.591 210.814 242.327 210.959 242.036C211.099 241.74 211.099 241.445 210.959 241.15C210.814 240.851 210.538 240.585 210.131 240.35C209.724 240.115 209.265 239.957 208.754 239.877C208.237 239.793 207.726 239.793 207.22 239.877C206.709 239.957 206.25 240.115 205.843 240.35C205.436 240.585 205.163 240.85 205.024 241.145C204.878 241.437 204.878 241.732 205.024 242.03C205.163 242.326 205.436 242.591 205.843 242.826C206.25 243.06 206.712 243.22 207.229 243.304C207.74 243.384 208.251 243.384 208.763 243.304C209.268 243.22 209.724 243.06 210.131 242.826ZM214.809 234.127L220.91 237.649L219.777 238.303L217.162 236.794L214.007 238.615L216.621 240.125L215.488 240.779L209.387 237.257L210.52 236.603L213.039 238.057L216.194 236.235L213.675 234.781L214.809 234.127ZM228.113 233.491L224.06 231.161L225.402 234.25L224.897 234.542L219.597 233.798L223.589 236.102L222.508 236.726L216.407 233.204L217.34 232.665L223.807 233.601L222.142 229.893L223.075 229.354L229.185 232.872L228.113 233.491ZM231.276 229.178L233.429 230.421L232.296 231.076L230.16 229.843L223.798 228.937L225.009 228.237L229.768 228.922L228.6 226.164L229.716 225.52L231.276 229.178Z" fill="white"/>
<path d="M269.89 209.471C269.402 209.753 268.844 209.934 268.216 210.015C267.583 210.092 266.921 210.058 266.229 209.914C265.532 209.766 264.858 209.505 264.207 209.129C263.556 208.753 263.106 208.366 262.856 207.967C262.6 207.564 262.542 207.182 262.682 206.819C262.815 206.454 263.126 206.13 263.614 205.848C264.102 205.566 264.663 205.387 265.297 205.31C265.93 205.226 266.595 205.258 267.292 205.405C267.984 205.549 268.655 205.809 269.306 206.185C269.957 206.561 270.41 206.95 270.666 207.353C270.915 207.752 270.971 208.136 270.831 208.505C270.692 208.867 270.378 209.189 269.89 209.471ZM268.905 208.903C269.341 208.651 269.503 208.349 269.393 207.997C269.288 207.641 268.879 207.257 268.164 206.844C267.449 206.432 266.784 206.195 266.168 206.135C265.558 206.071 265.035 206.165 264.599 206.417C264.169 206.665 264.007 206.967 264.111 207.322C264.222 207.675 264.634 208.057 265.349 208.47C266.064 208.882 266.726 209.121 267.336 209.184C267.952 209.245 268.475 209.151 268.905 208.903ZM271.256 204.264C272.116 203.768 272.92 203.498 273.67 203.454C274.414 203.407 275.073 203.55 275.648 203.882C276.015 204.093 276.256 204.337 276.372 204.612C276.488 204.887 276.453 205.179 276.267 205.487C276.081 205.796 275.724 206.103 275.195 206.408C274.759 206.66 274.277 206.868 273.748 207.032C273.214 207.193 272.697 207.29 272.197 207.324L271.796 206.539C272.209 206.515 272.627 206.445 273.051 206.328C273.475 206.204 273.856 206.044 274.193 205.85C274.594 205.618 274.826 205.39 274.89 205.165C274.954 204.934 274.841 204.734 274.55 204.566C274.236 204.385 273.876 204.321 273.469 204.375C273.063 204.422 272.56 204.618 271.962 204.964L270.489 205.814L267.481 203.716L271.064 201.648L272.014 202.196L269.39 203.711L270.672 204.602L271.256 204.264ZM275.405 197.712L276.381 197.149L281.715 203.55L280.739 204.113L275.405 197.712ZM289.543 196.917L290.502 197.47L286.004 200.067L285.246 199.629L285.368 196.902C285.38 196.593 285.336 196.356 285.237 196.192C285.139 196.021 284.993 195.88 284.802 195.769C284.517 195.605 284.203 195.534 283.86 195.558C283.517 195.581 283.16 195.701 282.788 195.915C282.166 196.274 281.902 196.672 281.995 197.108L280.592 197.214C280.51 196.891 280.583 196.564 280.81 196.232C281.036 195.893 281.399 195.58 281.899 195.291C282.562 194.909 283.247 194.694 283.956 194.647C284.665 194.6 285.29 194.733 285.83 195.045C286.161 195.236 286.402 195.456 286.554 195.704C286.705 195.952 286.769 196.298 286.745 196.74L286.667 198.577L289.543 196.917ZM295.045 193.247L293.964 193.871L295.35 194.671L294.252 195.305L292.866 194.505L289.519 196.437L288.734 195.985L287.811 191.979L289.022 191.279L289.946 195.084L291.942 193.931L290.713 193.222L291.776 192.608L293.005 193.317L294.086 192.693L295.045 193.247Z" fill="#686868"/>
</g>
<rect x="1.45268" width="358.966" height="224.773" rx="15.9354" transform="matrix(0.866025 -0.5 0.866025 0.5 0.194622 181.048)" stroke="url(#paint3_linear_31_122)" stroke-opacity="0.3" stroke-width="1.67741"/>
</g>
<defs>
<filter id="filter0_ii_31_122" x="-0.838705" y="122.161" width="509.277" height="296.063" filterUnits="userSpaceOnUse" color-interpolation-filters="sRGB">
<feFlood flood-opacity="0" result="BackgroundImageFix"/>
<feBlend mode="normal" in="SourceGraphic" in2="BackgroundImageFix" result="shape"/>
<feColorMatrix in="SourceAlpha" type="matrix" values="0 0 0 0 0 0 0 0 0 0 0 0 0 0 0 0 0 0 127 0" result="hardAlpha"/>
<feOffset dy="1.67741"/>
<feGaussianBlur stdDeviation="0.838705"/>
<feComposite in2="hardAlpha" operator="arithmetic" k2="-1" k3="1"/>
<feColorMatrix type="matrix" values="0 0 0 0 1 0 0 0 0 1 0 0 0 0 1 0 0 0 0.15 0"/>
<feBlend mode="normal" in2="shape" result="effect1_innerShadow_31_122"/>
<feColorMatrix in="SourceAlpha" type="matrix" values="0 0 0 0 0 0 0 0 0 0 0 0 0 0 0 0 0 0 127 0" result="hardAlpha"/>
<feOffset dx="-0.838705" dy="-0.838705"/>
<feGaussianBlur stdDeviation="0.838705"/>
<feComposite in2="hardAlpha" operator="arithmetic" k2="-1" k3="1"/>
<feColorMatrix type="matrix" values="0 0 0 0 0 0 0 0 0 0 0 0 0 0 0 0 0 0 0.04 0"/>
<feBlend mode="normal" in2="effect1_innerShadow_31_122" result="effect2_innerShadow_31_122"/>
</filter>
<filter id="filter1_b_31_122" x="-25.1611" y="97.8389" width="558.76" height="343.869" filterUnits="userSpaceOnUse" color-interpolation-filters="sRGB">
<feFlood flood-opacity="0" result="BackgroundImageFix"/>
<feGaussianBlur in="BackgroundImageFix" stdDeviation="12.5806"/>
<feComposite in2="SourceAlpha" operator="in" result="effect1_backgroundBlur_31_122"/>
<feBlend mode="normal" in="SourceGraphic" in2="effect1_backgroundBlur_31_122" result="shape"/>
</filter>
<filter id="filter2_f_31_122" x="81.2758" y="49.3913" width="391.954" height="436.978" filterUnits="userSpaceOnUse" color-interpolation-filters="sRGB">
<feFlood flood-opacity="0" result="BackgroundImageFix"/>
<feBlend mode="normal" in="SourceGraphic" in2="BackgroundImageFix" result="shape"/>
<feGaussianBlur stdDeviation="31.4514" result="effect1_foregroundBlur_31_122"/>
</filter>
<filter id="filter3_ii_31_122" x="-0.838705" y="-0.838705" width="509.277" height="296.063" filterUnits="userSpaceOnUse" color-interpolation-filters="sRGB">
<feFlood flood-opacity="0" result="BackgroundImageFix"/>
<feBlend mode="normal" in="SourceGraphic" in2="BackgroundImageFix" result="shape"/>
<feColorMatrix in="SourceAlpha" type="matrix" values="0 0 0 0 0 0 0 0 0 0 0 0 0 0 0 0 0 0 127 0" result="hardAlpha"/>
<feOffset dy="1.67741"/>
<feGaussianBlur stdDeviation="0.838705"/>
<feComposite in2="hardAlpha" operator="arithmetic" k2="-1" k3="1"/>
<feColorMatrix type="matrix" values="0 0 0 0 1 0 0 0 0 1 0 0 0 0 1 0 0 0 0.15 0"/>
<feBlend mode="normal" in2="shape" result="effect1_innerShadow_31_122"/>
<feColorMatrix in="SourceAlpha" type="matrix" values="0 0 0 0 0 0 0 0 0 0 0 0 0 0 0 0 0 0 127 0" result="hardAlpha"/>
<feOffset dx="-0.838705" dy="-0.838705"/>
<feGaussianBlur stdDeviation="0.838705"/>
<feComposite in2="hardAlpha" operator="arithmetic" k2="-1" k3="1"/>
<feColorMatrix type="matrix" values="0 0 0 0 0 0 0 0 0 0 0 0 0 0 0 0 0 0 0.04 0"/>
<feBlend mode="normal" in2="effect1_innerShadow_31_122" result="effect2_innerShadow_31_122"/>
</filter>
<filter id="filter4_b_31_122" x="-25.1611" y="-25.1611" width="558.76" height="343.869" filterUnits="userSpaceOnUse" color-interpolation-filters="sRGB">
<feFlood flood-opacity="0" result="BackgroundImageFix"/>
<feGaussianBlur in="BackgroundImageFix" stdDeviation="12.5806"/>
<feComposite in2="SourceAlpha" operator="in" result="effect1_backgroundBlur_31_122"/>
<feBlend mode="normal" in="SourceGraphic" in2="effect1_backgroundBlur_31_122" result="shape"/>
</filter>
<filter id="filter5_f_31_122" x="81.2758" y="-73.6087" width="391.954" height="436.978" filterUnits="userSpaceOnUse" color-interpolation-filters="sRGB">
<feFlood flood-opacity="0" result="BackgroundImageFix"/>
<feBlend mode="normal" in="SourceGraphic" in2="BackgroundImageFix" result="shape"/>
<feGaussianBlur stdDeviation="31.4514" result="effect1_foregroundBlur_31_122"/>
</filter>
<linearGradient id="paint0_linear_31_122" x1="9.22576" y1="-14.258" x2="357.288" y2="223.096" gradientUnits="userSpaceOnUse">
<stop stop-color="white"/>
<stop offset="1" stop-opacity="0"/>
</linearGradient>
<linearGradient id="paint1_linear_31_122" x1="-6.13595e-06" y1="-11.7419" x2="195.418" y2="170.257" gradientUnits="userSpaceOnUse">
<stop stop-color="white"/>
<stop offset="1" stop-color="white" stop-opacity="0"/>
</linearGradient>
<linearGradient id="paint2_linear_31_122" x1="9.22576" y1="-14.258" x2="357.288" y2="223.096" gradientUnits="userSpaceOnUse">
<stop stop-color="white"/>
<stop offset="1" stop-opacity="0"/>
</linearGradient>
<linearGradient id="paint3_linear_31_122" x1="-6.13595e-06" y1="-11.7419" x2="195.418" y2="170.257" gradientUnits="userSpaceOnUse">
<stop stop-color="white"/>
<stop offset="1" stop-color="white" stop-opacity="0"/>
</linearGradient>
<clipPath id="clip0_31_122">
<rect width="360.643" height="226.45" rx="16.7741" transform="matrix(0.866025 -0.5 0.866025 0.5 0 303.322)" fill="white"/>
</clipPath>
<clipPath id="clip1_31_122">
<rect width="360.643" height="226.45" transform="matrix(0.866025 -0.5 0.866025 0.5 0 303.322)" fill="white"/>
</clipPath>
<clipPath id="clip2_31_122">
<rect width="96.4511" height="36.903" fill="white" transform="matrix(0.866025 -0.5 0.866025 0.5 46.4858 303.322)"/>
</clipPath>
<clipPath id="clip3_31_122">
<rect width="26.8386" height="26.8386" fill="white" transform="matrix(0.866025 -0.5 0.866025 0.5 280.73 173.113)"/>
</clipPath>
<clipPath id="clip4_31_122">
<rect width="360.643" height="226.45" rx="16.7741" transform="matrix(0.866025 -0.5 0.866025 0.5 0 180.322)" fill="white"/>
</clipPath>
<clipPath id="clip5_31_122">
<rect width="360.643" height="226.45" transform="matrix(0.866025 -0.5 0.866025 0.5 0 180.322)" fill="white"/>
</clipPath>
<clipPath id="clip6_31_122">
<rect width="96.4511" height="36.903" fill="white" transform="matrix(0.866025 -0.5 0.866025 0.5 46.4858 180.322)"/>
</clipPath>
<clipPath id="clip7_31_122">
<rect width="26.8386" height="26.8386" fill="white" transform="matrix(0.866025 -0.5 0.866025 0.5 280.73 50.1126)"/>
</clipPath>
</defs>
</svg>
