<svg width="62" height="62" viewBox="0 0 62 62" fill="none" xmlns="http://www.w3.org/2000/svg">
<path d="M5.16699 28.4167C5.16699 24.1365 8.63679 20.6667 12.917 20.6667H49.0837C53.3639 20.6667 56.8337 24.1365 56.8337 28.4167V49.0834C56.8337 53.3636 53.3639 56.8334 49.0837 56.8334H12.917C8.63678 56.8334 5.16699 53.3636 5.16699 49.0834V28.4167Z" fill="#212121"/>
<path fill-rule="evenodd" clip-rule="evenodd" d="M3.22949 28.4167C3.22949 23.0665 7.56673 18.7292 12.917 18.7292H49.0837C54.4339 18.7292 58.7712 23.0665 58.7712 28.4167V49.0834C58.7712 54.4337 54.4339 58.7709 49.0837 58.7709H12.917C7.56673 58.7709 3.22949 54.4337 3.22949 49.0834V28.4167ZM12.917 22.6042C9.70684 22.6042 7.10449 25.2066 7.10449 28.4167V49.0834C7.10449 52.2936 9.70684 54.8959 12.917 54.8959H49.0837C52.2938 54.8959 54.8962 52.2936 54.8962 49.0834V28.4167C54.8962 25.2066 52.2938 22.6042 49.0837 22.6042H12.917Z" fill="#212121"/>
<path d="M45.513 6.64426L12.8269 20.1695C12.5656 20.2776 12.6429 20.6666 12.9256 20.6666H48.8257C48.9684 20.6666 49.084 20.5509 49.084 20.4082V9.03131C49.084 7.19061 47.2138 5.94047 45.513 6.64426Z" fill="#D1EE1E"/>
<path fill-rule="evenodd" clip-rule="evenodd" d="M47.1465 9.03135C47.1465 8.57118 46.6789 8.25864 46.2537 8.43459L21.3753 18.7291H47.1465V9.03135ZM44.7721 4.85402C47.7486 3.62239 51.0215 5.81013 51.0215 9.03135V20.4083C51.0215 21.621 50.0384 22.6041 48.8256 22.6041H12.9256C10.5224 22.6041 9.86543 19.2982 12.086 18.3793L44.7721 4.85402L45.5083 6.63323L44.7721 4.85402Z" fill="#212121"/>
<path fill-rule="evenodd" clip-rule="evenodd" d="M8.396 33.5835C8.396 32.5134 9.26344 31.646 10.3335 31.646L51.6668 31.646C52.7369 31.646 53.6043 32.5134 53.6043 33.5835C53.6043 34.6535 52.7369 35.521 51.6668 35.521L10.3335 35.521C9.26344 35.521 8.396 34.6535 8.396 33.5835Z" fill="#D1EE1E"/>
<path fill-rule="evenodd" clip-rule="evenodd" d="M10.9795 46.5002C10.9795 45.4302 11.8469 44.5627 12.917 44.5627L28.417 44.5627C29.487 44.5627 30.3545 45.4302 30.3545 46.5002C30.3545 47.5703 29.487 48.4377 28.417 48.4377L12.917 48.4377C11.8469 48.4377 10.9795 47.5703 10.9795 46.5002Z" fill="#D1EE1E"/>
</svg>
