<svg width="62" height="62" viewBox="0 0 62 62" fill="none" xmlns="http://www.w3.org/2000/svg">
<path d="M15.5 41.3333C15.5 39.9066 16.6566 38.75 18.0833 38.75H43.9167C45.3434 38.75 46.5 37.5934 46.5 36.1667V25.8333C46.5 24.4066 47.6566 23.25 49.0833 23.25H54.25C55.6767 23.25 56.8333 24.4066 56.8333 25.8333V46.5C56.8333 47.9267 55.6767 49.0833 54.25 49.0833H18.0833C16.6566 49.0833 15.5 47.9267 15.5 46.5V41.3333Z" fill="#D1EE1E"/>
<path fill-rule="evenodd" clip-rule="evenodd" d="M44.5625 25.8333C44.5625 23.3365 46.5865 21.3125 49.0833 21.3125H54.25C56.7468 21.3125 58.7708 23.3365 58.7708 25.8333V46.5C58.7708 48.9968 56.7468 51.0208 54.25 51.0208H18.0833C15.5865 51.0208 13.5625 48.9968 13.5625 46.5V41.3333C13.5625 38.8365 15.5865 36.8125 18.0833 36.8125H43.9167C44.2733 36.8125 44.5625 36.5234 44.5625 36.1667V25.8333ZM49.0833 25.1875C48.7267 25.1875 48.4375 25.4766 48.4375 25.8333V36.1667C48.4375 38.6635 46.4135 40.6875 43.9167 40.6875H18.0833C17.7266 40.6875 17.4375 40.9767 17.4375 41.3333V46.5C17.4375 46.8567 17.7266 47.1458 18.0833 47.1458H54.25C54.6067 47.1458 54.8958 46.8567 54.8958 46.5V25.8333C54.8958 25.4766 54.6067 25.1875 54.25 25.1875H49.0833Z" fill="#212121"/>
<path d="M5.1665 15.5001C5.1665 14.0733 6.3231 12.9167 7.74984 12.9167H43.9165C45.3432 12.9167 46.4998 14.0733 46.4998 15.5001V36.1667C46.4998 37.5935 45.3432 38.7501 43.9165 38.7501H7.74984C6.3231 38.7501 5.1665 37.5935 5.1665 36.1667V15.5001Z" fill="#212121"/>
<path fill-rule="evenodd" clip-rule="evenodd" d="M3.229 15.5001C3.229 13.0033 5.25305 10.9792 7.74984 10.9792H43.9165C46.4133 10.9792 48.4373 13.0033 48.4373 15.5001V36.1667C48.4373 38.6635 46.4133 40.6876 43.9165 40.6876H7.74984C5.25305 40.6876 3.229 38.6635 3.229 36.1667V15.5001ZM7.74984 14.8542C7.39315 14.8542 7.104 15.1434 7.104 15.5001V36.1667C7.104 36.5234 7.39315 36.8126 7.74984 36.8126H43.9165C44.2732 36.8126 44.5623 36.5234 44.5623 36.1667V15.5001C44.5623 15.1434 44.2732 14.8542 43.9165 14.8542H7.74984Z" fill="#212121"/>
<path fill-rule="evenodd" clip-rule="evenodd" d="M5.8125 23.25C5.8125 22.1799 6.67995 21.3125 7.75 21.3125L43.9167 21.3125C44.9867 21.3125 45.8542 22.1799 45.8542 23.25C45.8542 24.3201 44.9867 25.1875 43.9167 25.1875L7.75 25.1875C6.67995 25.1875 5.8125 24.3201 5.8125 23.25Z" fill="#D1EE1E"/>
<path fill-rule="evenodd" clip-rule="evenodd" d="M10.979 31C10.979 29.9299 11.8465 29.0625 12.9165 29.0625L23.2498 29.0625C24.3199 29.0625 25.1873 29.9299 25.1873 31C25.1873 32.0701 24.3199 32.9375 23.2498 32.9375H12.9165C11.8465 32.9375 10.979 32.0701 10.979 31Z" fill="#D1EE1E"/>
</svg>
