<svg width="136" height="29" viewBox="0 0 136 29" fill="none" xmlns="http://www.w3.org/2000/svg">
<path fill-rule="evenodd" clip-rule="evenodd" d="M86.1109 28.8893C93.9656 28.8893 100.333 22.5218 100.333 14.667C100.333 6.81233 93.9656 0.444824 86.1109 0.444824C78.2562 0.444824 71.8887 6.81233 71.8887 14.667C71.8887 22.5218 78.2562 28.8893 86.1109 28.8893Z" fill="#FCF9F1"/>
<path d="M93.1485 10.7164C93.0607 10.6224 92.9207 10.5991 92.8072 10.6595C92.6695 10.7225 92.5268 10.7739 92.3805 10.8131C92.5975 10.5428 92.7615 10.234 92.8641 9.90288C92.8921 9.78814 92.8463 9.66802 92.749 9.60105C92.6518 9.53409 92.5232 9.53421 92.426 9.60137C91.9727 9.85209 91.489 10.0433 90.9867 10.1703C90.4473 9.63351 89.7168 9.33275 88.9558 9.33399C88.3487 9.34734 87.7574 9.53063 87.2491 9.86305C86.1683 10.4718 85.9805 11.8769 86.0602 12.7473C84.0563 12.5783 82.2077 11.6006 80.9402 10.0394C80.8883 9.95965 80.8019 9.90904 80.7069 9.90288C80.6121 9.90928 80.5267 9.96264 80.4794 10.0451C79.8933 11.0599 79.942 12.3211 80.6045 13.2878C80.5192 13.2309 80.4282 13.1626 80.3371 13.0887C80.2523 13.0045 80.1239 12.9824 80.0158 13.0333C79.9076 13.0842 79.8429 13.1972 79.8536 13.3162C79.8708 14.3749 80.4012 15.3592 81.2758 15.9559L81.0539 15.8933C80.9484 15.8604 80.8335 15.8917 80.7591 15.9734C80.6847 16.0551 80.6644 16.1725 80.7069 16.2744C81.1534 17.2829 82.028 18.0385 83.0906 18.3338C82.1219 18.8934 80.9996 19.1286 79.8877 19.0051C79.7533 18.9885 79.6258 19.069 79.583 19.1974C79.5402 19.3259 79.5939 19.4668 79.7114 19.5342C81.049 20.3144 82.5717 20.7211 84.1203 20.7118C86.3074 20.6939 88.3806 19.734 89.8091 18.0778C91.2322 16.5526 91.9807 14.5183 91.8856 12.4344C92.3926 12.0471 92.8293 11.5756 93.177 11.0407C93.2364 10.9373 93.225 10.8078 93.1485 10.7164Z" fill="#060303"/>
<path fill-rule="evenodd" clip-rule="evenodd" d="M121.667 28.8893C129.521 28.8893 135.889 22.5218 135.889 14.667C135.889 6.81233 129.521 0.444824 121.667 0.444824C113.812 0.444824 107.444 6.81233 107.444 14.667C107.444 22.5218 113.812 28.8893 121.667 28.8893Z" fill="#FCF9F1"/>
<path fill-rule="evenodd" clip-rule="evenodd" d="M116.949 11.6219C116.223 11.5405 115.689 10.8808 115.742 10.1293C115.795 9.37775 116.415 8.80396 117.145 8.831C117.875 8.85803 118.454 9.4762 118.454 10.2297C118.409 11.0415 117.737 11.6636 116.949 11.6219ZM124.825 20.6912V16.3784C124.825 15.4956 124.576 14.6089 123.566 14.6089C122.557 14.6089 122.133 15.4956 122.133 16.4017V20.6912H119.442V12.7928H122.136V13.8584C122.845 12.929 123.461 12.5439 124.578 12.5439C125.695 12.5439 127.514 13.0845 127.514 16.2034V20.6912H124.827H124.825ZM115.595 20.6908H118.294H118.294V12.7925H115.595V20.6908Z" fill="#060303"/>
<path fill-rule="evenodd" clip-rule="evenodd" d="M15.0001 28.8893C22.8548 28.8893 29.2223 22.5218 29.2223 14.667C29.2223 6.81233 22.8548 0.444824 15.0001 0.444824C7.14534 0.444824 0.777832 6.81233 0.777832 14.667C0.777832 22.5218 7.14534 28.8893 15.0001 28.8893Z" fill="#FCF9F1"/>
<path d="M16.2384 21.7784V15.2909H18.4159L18.742 12.7627H16.2384V11.1485C16.2384 10.4165 16.4416 9.91769 17.4913 9.91769L18.8301 9.91711V7.6558C18.5986 7.62499 17.8038 7.55615 16.8792 7.55615C14.949 7.55615 13.6275 8.73439 13.6275 10.8981V12.7627H11.4443V15.2909H13.6275V21.7784H16.2384Z" fill="#060303"/>
<path fill-rule="evenodd" clip-rule="evenodd" d="M50.5557 28.8893C58.4104 28.8893 64.7779 22.5218 64.7779 14.667C64.7779 6.81233 58.4104 0.444824 50.5557 0.444824C42.701 0.444824 36.3335 6.81233 36.3335 14.667C36.3335 22.5218 42.701 28.8893 50.5557 28.8893Z" fill="#FCF9F1"/>
<path fill-rule="evenodd" clip-rule="evenodd" d="M53.6663 8.44482H47.4441C45.7332 8.44482 44.333 9.84436 44.333 11.5559V17.7782C44.333 19.4891 45.7332 20.8893 47.4441 20.8893H53.6663C55.3773 20.8893 56.7775 19.4891 56.7775 17.7782V11.5559C56.7775 9.84436 55.3773 8.44482 53.6663 8.44482ZM50.5549 17.2603C49.1229 17.2603 47.9623 16.0993 47.9623 14.6678C47.9623 13.2358 49.1229 12.0752 50.5549 12.0752C51.9863 12.0752 53.1476 13.2358 53.1476 14.6678C53.1476 16.0993 51.9863 17.2603 50.5549 17.2603ZM53.1479 11.2973C53.1479 11.7268 53.4958 12.0751 53.9257 12.0751C54.3557 12.0751 54.7035 11.7268 54.7035 11.2973C54.7035 10.8678 54.3557 10.5195 53.9257 10.5195C53.4958 10.5195 53.1479 10.8678 53.1479 11.2973Z" fill="#060303"/>
</svg>
