<svg width="62" height="62" viewBox="0 0 62 62" fill="none" xmlns="http://www.w3.org/2000/svg">
<path d="M48.5625 23.4111C48.5625 39.0338 35.8557 53.3083 32.3733 56.9271C31.887 57.4324 31.113 57.4324 30.6266 56.9271C27.1442 53.3083 14.4375 39.0338 14.4375 23.4111C14.4375 12.549 22.9688 5.30762 31.5 5.30762C40.0312 5.30762 48.5625 12.549 48.5625 23.4111Z" fill="#14142B"/>
<path fill-rule="evenodd" clip-rule="evenodd" d="M31.5 7.27637C24.0379 7.27637 16.4062 13.6544 16.4062 23.4111C16.4062 30.7134 19.3878 37.8251 22.9109 43.6519C26.0832 48.8985 29.6081 52.9618 31.5 54.9867C33.3919 52.9618 36.9168 48.8985 40.0891 43.6519C43.6122 37.8251 46.5938 30.7134 46.5938 23.4111C46.5938 13.6544 38.9621 7.27637 31.5 7.27637ZM12.4688 23.4111C12.4688 11.4436 21.8996 3.33887 31.5 3.33887C41.1004 3.33887 50.5312 11.4436 50.5312 23.4111C50.5312 31.7314 47.1594 39.5685 43.4586 45.6892C39.7438 51.833 35.59 56.4237 33.7919 58.2922C32.5311 59.6024 30.4689 59.6024 29.2081 58.2922C27.4099 56.4237 23.2562 51.833 19.5414 45.6892C15.8406 39.5685 12.4688 31.7314 12.4688 23.4111Z" fill="#14142B"/>
<path d="M38.0625 23.625C38.0625 27.2494 35.1244 30.1875 31.5 30.1875C27.8756 30.1875 24.9375 27.2494 24.9375 23.625C24.9375 20.0006 27.8756 17.0625 31.5 17.0625C35.1244 17.0625 38.0625 20.0006 38.0625 23.625Z" fill="#14142B"/>
<path fill-rule="evenodd" clip-rule="evenodd" d="M31.5 19.0312C28.9629 19.0312 26.9062 21.0879 26.9062 23.625C26.9062 26.1621 28.9629 28.2188 31.5 28.2188C34.0371 28.2188 36.0938 26.1621 36.0938 23.625C36.0938 21.0879 34.0371 19.0312 31.5 19.0312ZM22.9688 23.625C22.9688 18.9133 26.7883 15.0938 31.5 15.0938C36.2117 15.0938 40.0312 18.9133 40.0312 23.625C40.0312 28.3367 36.2117 32.1562 31.5 32.1562C26.7883 32.1562 22.9688 28.3367 22.9688 23.625Z" fill="#D1EE1E"/>
</svg>
