<svg width="917" height="51" viewBox="0 0 917 51" fill="none" xmlns="http://www.w3.org/2000/svg">
<path d="M19.1187 10.8414L19.1257 10.8442C19.2709 10.2259 19.7985 9.77083 20.4587 9.77083H39.2634C39.2871 9.77083 39.3108 9.76106 39.3346 9.76246C38.934 3.09177 33.3381 0 28.401 0H9.59635C8.93473 0 8.4071 0.467604 8.26333 1.08456L8.25635 1.08177L0.0362917 38.8223L0.0544375 38.8237C0.0348959 38.913 0 38.9982 0 39.0945C0 39.8664 0.623937 40.4778 1.39583 40.4778H12.6616L19.1187 10.8414Z" fill="#686868"/>
<path d="M39.3351 9.76245C39.409 10.9852 39.3281 12.3154 39.0154 13.7852C37.2274 22.1533 30.7633 26.5083 22.7749 26.5083C22.7749 26.5083 17.9314 26.5083 16.7547 26.5083C16.0274 26.5083 15.6841 26.9354 15.5263 27.262L13.0976 38.4971L12.6719 40.4917H12.6635L10.9005 48.582L10.9187 48.5834C10.8992 48.6727 10.8643 48.7578 10.8643 48.8542C10.8643 49.6261 11.4882 50.25 12.2601 50.25H22.4957L22.5139 50.236C23.1727 50.2263 23.6962 49.7559 23.8329 49.1361L23.8581 49.1152L26.3873 37.3678C26.3873 37.3678 26.5632 36.247 27.7413 36.247C28.9194 36.247 33.5731 36.247 33.5731 36.247C41.5614 36.247 48.0911 31.9115 49.8806 23.5421C51.8934 14.1063 45.1627 9.79735 39.3351 9.76245Z" fill="#C7C7C7"/>
<path d="M20.4587 9.77079C19.7971 9.77079 19.2694 10.2258 19.1257 10.8442L19.1187 10.8414L15.5244 27.2634C15.6821 26.9367 16.0255 26.5096 16.7527 26.5096C17.9308 26.5096 22.6641 26.5096 22.6641 26.5096C30.6525 26.5096 37.2254 22.1546 39.0135 13.7866C39.3276 12.3168 39.4071 10.9866 39.3331 9.76381C39.3108 9.76102 39.2857 9.77079 39.2634 9.77079H20.4587Z" fill="#DEDEDE"/>
<path d="M280.125 20.411C280.125 17.3493 277.148 14.0977 271.996 14.0977C266.211 14.0977 259.855 18.3417 258.884 26.8083C257.892 35.3597 263.212 39.1603 268.575 39.1603C273.939 39.1603 276.747 37.07 279.618 34.283C277.148 31.179 273.96 32.615 273.347 32.9317C272.672 33.2693 271.806 33.734 270.032 33.734C267.963 33.734 265.852 32.805 265.852 28.941C279.112 27.632 280.125 23.4723 280.125 20.411ZM273.558 20.9177C273.474 21.8677 273.094 23.4937 266.38 24.4013C267.794 19.3763 270.497 18.9963 271.743 18.9963C272.904 18.9963 273.643 19.904 273.558 20.9177ZM251.093 21.741C251.093 21.741 248.243 30.6933 248.01 31.4323C247.926 30.6723 245.835 14.6043 245.835 14.6043C240.979 14.6043 238.382 18.067 237.01 21.72C237.01 21.72 233.547 30.6933 233.251 31.4533C233.23 30.7567 232.723 21.8257 232.723 21.8257C232.428 17.349 228.332 14.6257 225.017 14.6257L229.028 38.9703C234.117 38.9493 236.862 35.5077 238.298 31.8547C238.298 31.8547 241.359 23.937 241.486 23.578C241.507 23.9157 243.682 38.9703 243.682 38.9703C248.791 38.9703 251.536 35.7397 253.014 32.2137L260.172 14.6257C255.125 14.6257 252.465 18.067 251.093 21.741ZM298.874 14.0553C295.728 14.0553 293.321 15.7657 291.294 18.2783V18.2573L293.11 3.625C288.93 3.625 285.53 7.25667 284.876 12.6617L281.708 38.7803C284.116 38.7803 286.67 38.0837 288.043 36.31C289.267 37.8933 291.104 39.1603 293.828 39.1603C300.88 39.1603 305.715 30.968 305.715 23.2823C305.673 16.2723 302.274 14.0553 298.874 14.0553ZM298.22 26.6187C297.481 30.9047 295.095 33.8187 292.793 33.8187C290.471 33.8187 289.479 32.7837 289.479 32.7837C289.922 29.0253 290.196 26.724 291.041 24.7393C291.886 22.7547 293.891 19.5873 295.982 19.5873C298.03 19.5873 298.959 22.3114 298.22 26.6187ZM323.325 14.625H318.405L318.426 14.3717C318.764 11.1623 319.524 9.47333 322.037 9.199C323.747 9.03 324.507 8.143 324.697 7.172C324.845 6.412 325.31 3.77233 325.31 3.77233C315.428 3.709 312.324 7.97433 311.522 14.4773L311.501 14.6253H311.395C309.79 14.6253 308.017 16.441 307.721 18.7423L307.616 19.587H310.91L308.144 42.4327L307.299 46.529C307.405 46.529 307.531 46.55 307.637 46.55C312.261 46.381 315.217 42.7283 315.871 37.4287L318.025 19.587H319.566C321.086 19.587 322.86 18.067 323.177 15.533L323.325 14.625ZM348.916 14.203C343.236 14.203 337.873 18.3837 336.226 24.95C334.579 31.5167 337.07 39.2867 345.432 39.2867C353.772 39.2867 358.586 31.2 358.586 24.4643C358.586 17.771 354.046 14.203 348.916 14.203ZM351.217 26.407C350.921 29.384 349.612 33.9027 346.023 33.9027C342.412 33.9027 342.919 28.624 343.278 26.1113C343.658 23.43 345.157 19.608 348.388 19.608C351.28 19.608 351.555 23.0497 351.217 26.407ZM386.647 21.7407C386.647 21.7407 383.796 30.693 383.564 31.432C383.48 30.672 381.389 14.604 381.389 14.604C376.533 14.604 373.936 18.0667 372.564 21.7197C372.564 21.7197 369.101 30.693 368.805 31.453C368.784 30.7563 368.277 21.8253 368.277 21.8253C367.982 17.3487 363.886 14.6253 360.571 14.6253L364.561 38.97C369.65 38.949 372.395 35.5073 373.83 31.8543C373.83 31.8543 376.892 23.9367 376.998 23.5777C377.019 23.9153 379.193 38.97 379.193 38.97C384.303 38.97 387.048 35.7393 388.526 32.2133L395.684 14.6257C390.658 14.6257 387.998 18.0667 386.647 21.7407ZM327.97 3.77267L323.831 37.1543L322.987 41.2717C323.092 41.2717 323.219 41.293 323.325 41.293C327.78 41.2297 330.947 37.3233 331.538 32.4037L333.924 13.253C334.642 7.40433 331.158 3.77267 327.97 3.77267Z" fill="#686868"/>
<path d="M916.477 1.52502V48.725L897.147 1.52502H916.477ZM881.976 38.7882H890.517L894.563 48.725H903.104L890.517 17.8102L881.976 38.7882ZM864.557 1.52502V48.725L883.886 1.52502H864.557Z" fill="#686868"/>
<path d="M593.46 38.0092C583.983 38.0092 576.017 30.2951 576.017 20.8181C576.017 11.3411 583.983 3.62707 593.46 3.62707C597.865 3.55715 602.112 5.2643 605.243 8.36318L601.908 11.6985C599.633 9.51459 596.589 8.31608 593.436 8.36318C586.63 8.49609 581.183 14.0514 581.183 20.8586C581.183 27.6659 586.63 33.2211 593.436 33.354C597.925 33.354 600.479 31.553 602.118 29.9139C603.461 28.5703 604.338 26.6453 604.676 24.0009H593.508V19.2743H609.269C609.448 20.2423 609.532 21.2252 609.522 22.2094C609.522 25.7305 608.569 30.0902 605.453 33.1968C602.437 36.332 598.577 38.0092 593.46 38.0092Z" fill="#6F6F6F"/>
<path d="M633.174 26.9359C633.178 31.4174 630.481 35.4597 626.342 37.1774C622.203 38.895 617.436 37.9496 614.266 34.7821C611.096 31.6145 610.146 26.849 611.86 22.7083C613.574 18.5676 617.614 15.8675 622.096 15.8675C625.045 15.8247 627.886 16.9768 629.973 19.0616C632.059 21.1464 633.214 23.9866 633.174 26.9359ZM628.323 26.9359C628.323 22.9526 625.441 20.2272 622.096 20.2272C618.751 20.2272 615.868 22.9526 615.868 26.9359C615.868 30.9192 618.751 33.6446 622.096 33.6446C625.441 33.6446 628.323 30.8811 628.323 26.9359Z" fill="#6F6F6F"/>
<path d="M657.507 26.9358C657.525 31.4338 654.829 35.4985 650.678 37.2318C646.528 38.9652 641.741 38.0251 638.555 34.8507C635.368 31.6763 634.409 26.8938 636.127 22.7365C637.844 18.5793 641.898 15.8674 646.396 15.8674C649.348 15.8262 652.192 16.9777 654.283 19.0611C656.375 21.1446 657.537 23.9838 657.507 26.9358ZM652.643 26.9358C652.643 22.9525 649.751 20.2271 646.396 20.2271C643.042 20.2271 640.15 22.9525 640.15 26.9358C640.15 30.9191 643.042 33.6445 646.396 33.6445C649.751 33.6445 652.643 30.881 652.643 26.9358Z" fill="#6F6F6F"/>
<path d="M680.702 16.5393V36.4271C680.702 44.6034 675.881 47.9577 670.177 47.9577C665.88 47.9789 661.999 45.3912 660.367 41.4158L664.603 39.6528C665.355 41.4539 667.204 43.5932 670.177 43.5932C673.827 43.5932 676.09 41.33 676.09 37.0942V35.4742H675.923C674.445 37.1285 672.314 38.0486 670.096 37.9899C664.56 37.9899 659.5 33.1681 659.5 26.9644C659.5 20.7608 664.56 15.8531 670.096 15.8531C672.303 15.799 674.427 16.6984 675.923 18.3213H676.09V16.5393H680.702ZM676.414 26.9787C676.414 23.0812 673.813 20.2271 670.501 20.2271C667.19 20.2271 664.336 23.086 664.336 26.9787C664.336 30.8715 667.147 33.6493 670.501 33.6493C673.856 33.6493 676.424 30.8381 676.424 26.9787H676.414Z" fill="#6F6F6F"/>
<path d="M688.521 4.93726V37.3372H683.685V4.93726H688.521Z" fill="#6F6F6F"/>
<path d="M707.136 30.5856L710.91 33.1014C708.857 36.1848 705.39 38.029 701.686 38.009C695.396 38.009 690.698 33.1442 690.698 26.9406C690.698 20.3558 695.434 15.8722 701.138 15.8722C706.841 15.8722 709.714 20.4415 710.615 22.9144L711.12 24.1723L696.321 30.2949C697.455 32.5153 699.213 33.6302 701.686 33.6302C704.159 33.6302 705.883 32.4295 707.136 30.5856ZM695.52 26.6023L705.416 22.4951C704.873 21.1134 703.234 20.1461 701.309 20.1461C699.681 20.2208 698.151 20.9469 697.064 22.1612C695.977 23.3755 695.424 24.9759 695.53 26.6023H695.52Z" fill="#6F6F6F"/>
</svg>
